PathFileType	4	(X/Y/Z)	Patient5_TMGait_0pt45_1_right_03.trc.trc
DataRate	CameraRate	NumFrames	NumMarkers	Units	OrigDataRate	OrigDataStartFrame	OrigNumFrames
60.085836909871	60.085836909871	6	32	mm	60.085836909871	1	       141
Frame#	Time	R.ASIS			L.ASIS			Chest			R.Shoulder			Neck			L.Shoulder			L.Elbow			L.Wrist			R.Elbow			R.Wrist			L.Thigh.Superior			L.Thigh.Lateral			L.Thigh.Inferior			L.Patella			L.Shank.Superior			L.Shank.Lateral			L.Shank.Inferior			L.Heel			L.Midfoot.Lateral			L.Midfoot.Superior			L.Toe			R.Thigh.Superior			R.Thigh.Lateral			R.Thigh.Inferior			R.Patella			R.Shank.Superior			R.Shank.Lateral			R.Shank.Inferior			R.Heel			R.Midfoot.Lateral			R.Midfoot.Superior			R.Toe			
		X1	Y1	Z1	X2	Y2	Z2	X3	Y3	Z3	X4	Y4	Z4	X5	Y5	Z5	X6	Y6	Z6	X7	Y7	Z7	X8	Y8	Z8	X9	Y9	Z9	X10	Y10	Z10	X11	Y11	Z11	X12	Y12	Z12	X13	Y13	Z13	X14	Y14	Z14	X15	Y15	Z15	X16	Y16	Z16	X17	Y17	Z17	X18	Y18	Z18	X19	Y19	Z19	X20	Y20	Z20	X21	Y21	Z21	X22	Y22	Z22	X23	Y23	Z23	X24	Y24	Z24	X25	Y25	Z25	X26	Y26	Z26	X27	Y27	Z27	X28	Y28	Z28	X29	Y29	Z29	X30	Y30	Z30	X31	Y31	Z31	X32	Y32	Z32	

1	4.470000000000	916.945195486247	1016.567507697216	541.499696129820	939.794957216219	962.605124030351	300.927125223850	996.097223947516	1448.223766913339	433.442933232743	864.146327790747	1509.041884933833	576.586629804027	871.578942779788	1567.719830436228	389.805707998163	982.759607200450	1517.960734744830	232.955761918867	987.568147812450	1189.081939505934	101.848503331620	1154.115585959347	959.358646821410	137.231672381249	761.580158126192	1183.448021507871	690.064586152828	973.950875865232	987.308451325545	662.783062024004	949.671529120894	739.290305092707	312.470814444052	875.521105837340	670.743914206429	267.369962435535	935.766387430017	612.089448708762	341.705671304312	927.499501194375	497.788017465345	355.106628043186	874.178113978471	397.685995774310	373.225518505199	815.191235710861	328.853300191476	289.524834625905	832.688705261503	277.166674159655	381.734180175296	688.515011989502	49.649093121142	378.415566190326	777.351898411331	28.095016844435	317.347586677657	873.116192430001	88.437759206932	363.980131381459	982.197755030958	45.386283445407	365.528043577326	967.548218673447	806.855847710208	597.932910969941	897.672051615067	725.251833401913	656.982663034145	995.216823317745	680.396546900878	604.266352230868	1013.349960744890	583.937734747079	654.550983134171	967.951943729905	473.376838625335	619.849733252292	875.246664378573	418.203083815336	689.982161374887	936.589640188810	336.548971547243	625.194261873811	799.604721494086	131.748401651647	585.249795993481	858.758285926090	82.372780845073	665.991091582360	974.555361773987	131.053100372852	672.639118139745	1068.619125136429	70.439572278755	683.146887569303	
2	4.486642857143	914.744728875588	1016.247386272355	542.271079362401	938.028657849609	962.291156831447	301.215332972265	992.872883538692	1448.204366778727	433.700382814610	860.198946165230	1509.057733265083	576.320632761152	868.288875658446	1567.384690713683	389.452116972104	979.979168239369	1517.393650429697	232.960877196060	985.086229901727	1188.125468735630	102.875328078607	1150.311290812718	957.546681436239	139.129445364797	757.003174215628	1183.442507790976	689.197034180666	970.593405006473	988.382218735405	663.662745021846	945.952122474715	738.379331735760	313.322305653852	871.317336305144	670.601379185029	267.621529319094	930.204603390223	611.027990997724	342.174636548686	920.714830921762	497.100931001685	355.055486773960	866.997612464702	397.482292481867	372.988756808716	807.637074121771	328.823509530727	289.486806729392	825.278160076659	277.128139425370	381.679770811005	680.565408082087	49.831279664543	378.348417433949	769.341217944147	28.067224500251	317.434848860426	865.069585351305	88.087380442080	364.176361037295	974.172405063717	45.356450605922	365.533666531089	967.677392467652	808.304597778845	597.316869669350	899.853249389484	725.412251805523	656.435584569884	998.296863870138	682.821351374009	603.225795199741	1018.567965366542	586.852353369478	653.080192299822	976.952361014211	475.987686183226	617.983987170796	886.190238911407	417.502625710637	687.825643532215	950.396336215229	338.292062014958	622.981383177690	820.756131648956	128.970128673440	582.743109829880	881.733274240178	81.561494760561	663.328192236728	995.462320840860	134.541240588560	669.861692886569	1091.660719635735	77.820309702886	679.971278483992	
3	4.503285714286	912.604369270729	1015.901967571661	543.039965516439	936.311104466894	961.958651381332	301.498584759580	989.696222273545	1448.154507684873	434.008319329919	856.304264929053	1509.033683706492	576.117110336142	865.039621404296	1567.027713718721	389.158581885035	977.243260975980	1516.809718079931	233.020255693566	982.553100531157	1187.161903422669	103.914028861279	1146.449396502508	955.720951057816	141.017802560790	752.488773042098	1183.415826091832	688.436360158826	967.256617931469	989.404794798056	664.616259338168	942.384672603276	737.506429216199	314.205062781944	867.203326004306	670.422778586350	267.917030115187	924.787228121152	609.986209020124	342.634133876732	914.088469492646	496.413694293755	355.003481414710	859.964782969626	397.263823205318	372.764834269635	800.233621028419	328.785347718409	289.449315881850	817.973306082682	277.079512762800	381.605000199221	672.716205645793	50.010420280319	378.284013309399	761.433493159874	28.052460568977	317.512103955830	857.136714985955	87.805793845198	364.326652989152	966.247771471349	45.308358879708	365.553195257705	967.976427248442	809.688202493297	596.219297533337	902.265678016852	725.554592819579	655.772827953794	1001.422421060442	685.137153457131	601.857348229419	1023.852700173684	589.645081916501	651.265475462331	985.787361436494	478.504854691499	615.970005527825	897.077583375387	416.900198066194	685.745921559824	963.887969481208	340.013821696922	620.745247016777	841.274682791884	126.361856794687	580.541963893949	904.126199860121	80.905924242257	660.903368362430	1015.835894435022	138.020729566171	667.108232656495	1114.067663816875	85.053433564030	676.723745839042	
4	4.519928571429	910.619700074366	1015.503431683480	543.802280082560	934.680498868466	961.595633529897	301.762952999030	986.606050474559	1448.040683747185	434.412636193736	852.514094330570	1508.919531877038	576.049005622975	861.856233422908	1566.617035065462	389.002162568316	974.566283705399	1516.194836684178	233.188844977731	979.902109382592	1186.186369419638	104.983228885480	1142.442330141460	953.862016513350	142.896094902537	748.090214301295	1183.335873785513	687.889772711054	963.943677173967	990.302927162639	665.726410380162	939.062254988395	736.679521147043	315.096503125536	863.260125120720	670.180828670430	268.271956407659	919.640031739776	608.981254097395	343.065200537992	907.748791021145	495.715531377748	354.939427100436	853.186126036827	397.017258947873	372.560885700898	793.080049807201	328.737513346639	289.409677586343	810.849357184644	277.012708448021	381.497895377736	665.013071715722	50.182312394135	378.225860219526	753.676638577883	28.056292212654	317.575155719543	849.375017756737	87.639686573548	364.397801174068	958.471453116705	45.232156282023	365.592050573547	968.587797115704	810.901982834334	594.293974525197	905.085775197382	725.636919399216	654.901240988595	1004.609940502029	687.204870628442	599.908103288972	1029.227310541900	592.183347149587	648.850005802564	994.290812745869	480.811612729080	613.696255961797	907.825705723003	416.441138702176	683.807196366190	976.763161398966	341.655989345401	618.465476296166	860.597445977742	124.030384332234	578.879453195944	925.411209383763	80.498016749948	658.882640466841	1035.189284532770	141.438996790993	664.374718123961	1135.265207914450	91.964413443542	673.309899031854	
5	4.536571428571	908.880999045773	1015.026372782065	544.555346765782	933.155472962578	961.198706503227	301.992263642544	983.621394621532	1447.834756194758	434.944631905105	848.862312815175	1508.671069373704	576.176629717660	858.744097863617	1566.123079180967	389.053365748446	971.937424719381	1515.538451601803	233.508696648528	977.071842226190	1185.194739753852	106.101912153914	1138.203313336001	951.949487959349	144.771131055436	743.838513588588	1183.171022536001	687.638440143841	960.642123725568	991.006618391353	667.059982830661	936.026291819771	735.888157225392	315.951319600836	859.531736203708	669.853798343335	268.693309902999	914.847067351229	608.029338318414	343.449483724904	901.765103834906	494.991912082782	354.849693005625	846.706320429290	396.732519759195	372.380324178727	786.210699666026	328.683467836182	289.363572068217	803.937166551567	276.923714414960	381.359445476374	657.446484410999	50.342625982110	378.178571077502	746.062313469214	28.078726429622	317.624734715379	841.780855498110	87.600857753638	364.379646035980	950.836846185415	45.130344923320	365.644672509630	969.602089057720	811.840274379846	591.399603532424	908.414753709916	725.618773332146	653.769445221247	1007.850318508646	688.902390862689	597.237044723953	1034.679466955116	594.366678467493	645.704674910611	1002.341092048921	482.806089335349	611.106452473291	918.362529150533	416.122259429444	682.049871841614	988.815146022027	343.152049945413	616.129515478970	878.374291596765	122.006892532205	577.879222100151	945.257704220675	80.359036839526	657.334144289073	1053.213488068741	144.731379386556	661.635399354037	1154.893737185374	98.413436388306	669.635536570921	
6	4.553214285714	907.475746268125	1014.453264295665	545.297839609622	931.738808254578	960.773374565086	302.170296690634	980.751314408821	1447.519285280310	435.615636040210	845.377134800569	1508.256014777100	576.541921356024	855.700007814076	1565.524081061293	389.366932245742	969.328585389252	1514.838753954106	234.002671513720	974.021380369922	1184.188880169096	107.283454171462	1133.669907993274	949.972734436571	146.648936486020	739.755414255621	1182.894368429312	687.729150895106	957.338391141214	991.453613314193	668.655986372680	933.265620044995	735.105646623558	316.704343065530	856.034546581097	669.434293364312	269.169881513498	910.451182627437	607.144385062994	343.769848667137	896.158791151421	494.229077253497	354.718670297354	840.525315971847	396.405777021494	372.220859863340	779.612649835711	328.632093685467	289.305346474969	797.241637536018	276.813293894545	381.199972495222	649.978663025151	50.487249244880	378.146707140130	738.552963407299	28.115094279064	317.664817291478	834.315847144158	87.668001351181	364.283651944431	943.309259705012	45.017249128565	365.696436031559	971.037189542948	812.407194618215	587.649836657221	912.244979734421	725.457285767028	652.379222021701	1011.101373835926	690.131894602897	593.853266345701	1040.140085881771	596.124399061839	641.860955877880	1009.847244153214	484.404146655392	608.219316216409	928.589011815712	415.888053771611	680.486085648119	999.911639895448	344.425291893612	613.742820209019	894.439405405520	120.249202149788	577.536111429843	963.489105904363	80.434904307126	656.218478635894	1069.740510779378	147.810764394625	658.855881235240	1172.770711226811	104.283721050638	665.634112075755	
